<?xml version="1.0" encoding="UTF-8" standalone="no"?>
<!-- Created with Inkscape (http://www.inkscape.org/) -->

<svg
   xmlns:dc="http://purl.org/dc/elements/1.1/"
   xmlns:cc="http://creativecommons.org/ns#"
   xmlns:rdf="http://www.w3.org/1999/02/22-rdf-syntax-ns#"
   xmlns:svg="http://www.w3.org/2000/svg"
   xmlns="http://www.w3.org/2000/svg"
   xmlns:sodipodi="http://sodipodi.sourceforge.net/DTD/sodipodi-0.dtd"
   xmlns:inkscape="http://www.inkscape.org/namespaces/inkscape"
   width="55.738651mm"
   height="42.552933mm"
   viewBox="0 0 55.738651 42.552933"
   version="1.1"
   id="svg8"
   inkscape:version="0.92.3 (unknown)"
   sodipodi:docname="60611-pull.svg">
  <defs
     id="defs2">
    <filter
       inkscape:collect="always"
       style="color-interpolation-filters:sRGB"
       id="filter864"
       x="-0.023985231"
       width="1.0479705"
       y="-0.096237019"
       height="1.192474">
      <feGaussianBlur
         inkscape:collect="always"
         stdDeviation="0.30725002"
         id="feGaussianBlur866" />
    </filter>
  </defs>
  <sodipodi:namedview
     id="base"
     pagecolor="#ffffff"
     bordercolor="#666666"
     borderopacity="1.0"
     inkscape:pageopacity="0.0"
     inkscape:pageshadow="2"
     inkscape:zoom="4.0018073"
     inkscape:cx="102.8466"
     inkscape:cy="95.938664"
     inkscape:document-units="mm"
     inkscape:current-layer="layer1"
     showgrid="false"
     inkscape:window-width="1366"
     inkscape:window-height="716"
     inkscape:window-x="0"
     inkscape:window-y="0"
     inkscape:window-maximized="1" />
  <metadata
     id="metadata5">
    <rdf:RDF>
      <cc:Work
         rdf:about="">
        <dc:format>image/svg+xml</dc:format>
        <dc:type
           rdf:resource="http://purl.org/dc/dcmitype/StillImage" />
        <dc:title></dc:title>
      </cc:Work>
    </rdf:RDF>
  </metadata>
  <g
     inkscape:label="Layer 1"
     inkscape:groupmode="layer"
     id="layer1"
     transform="translate(266.25198,45.749115)">
    <g
       aria-label="60611"
       style="font-style:normal;font-variant:normal;font-weight:normal;font-stretch:normal;font-size:10.58333302px;line-height:1.25;font-family:'DejaVu Sans Mono';-inkscape-font-specification:'DejaVu Sans Mono';letter-spacing:0px;word-spacing:0px;fill:#000000;fill-opacity:1;stroke:none;stroke-width:0.26458332"
       id="text817"
       transform="translate(22.479427,2.3140586)">
      <path
         d="m -261.29193,-35.492045 q -1.17475,0 -1.80975,-0.79375 -0.635,-0.804334 -0.635,-2.074334 0,-1.672166 1.06892,-3.037416 1.06892,-1.36525 2.78342,-1.756833 v 0.772583 q -0.96309,0.264583 -1.75684,1.04775 -0.78316,0.772583 -0.98425,1.693333 0.52917,-0.60325 1.524,-0.60325 0.94192,0 1.56634,0.687917 0.62441,0.687917 0.62441,1.61925 0,1.04775 -0.68791,1.74625 -0.68792,0.6985 -1.69334,0.6985 z m -0.0212,-0.836084 q 0.66675,0 1.09008,-0.423333 0.42333,-0.433917 0.42333,-1.100667 0,-0.6985 -0.41275,-1.132416 -0.41275,-0.4445 -1.10066,-0.4445 -0.66675,0 -1.10067,0.4445 -0.42333,0.4445 -0.42333,1.132416 0,0.656167 0.43391,1.090084 0.43392,0.433916 1.09009,0.433916 z"
         style="font-style:normal;font-variant:normal;font-weight:normal;font-stretch:normal;font-family:'Overpass Mono';-inkscape-font-specification:'Overpass Mono';stroke-width:0.26458332"
         id="path819"
         inkscape:connector-curvature="0" />
      <path
         d="m -254.81245,-35.492045 q -0.70908,0 -1.23825,-0.328084 -0.51858,-0.338666 -0.80433,-0.899583 -0.27517,-0.5715 -0.41275,-1.217083 -0.127,-0.645584 -0.127,-1.386417 0,-0.529166 0.0635,-1.026583 0.0741,-0.497417 0.254,-1.016 0.17992,-0.529167 0.45508,-0.910167 0.28575,-0.381 0.75142,-0.624416 0.46567,-0.254 1.05833,-0.254 0.70909,0 1.23825,0.338666 0.52917,0.328084 0.80434,0.899584 0.28575,0.5715 0.41275,1.217083 0.13758,0.645583 0.13758,1.375833 0,0.677334 -0.127,1.30175 -0.11642,0.613833 -0.39158,1.217083 -0.27517,0.592667 -0.81492,0.9525 -0.52917,0.359834 -1.25942,0.359834 z m 0,-0.836084 q 0.48684,0 0.8255,-0.264583 0.34925,-0.275167 0.508,-0.740833 0.16934,-0.465667 0.23284,-0.941917 0.0741,-0.486833 0.0741,-1.04775 0,-0.592666 -0.0847,-1.090083 -0.0741,-0.497417 -0.254,-0.941917 -0.16933,-0.455083 -0.508,-0.709083 -0.32808,-0.254 -0.79375,-0.254 -0.48683,0 -0.83608,0.275167 -0.33867,0.264583 -0.508,0.740833 -0.16933,0.465667 -0.24342,0.941917 -0.0635,0.47625 -0.0635,1.037166 0,0.592667 0.0741,1.100667 0.0847,0.497416 0.254,0.941916 0.17991,0.4445 0.508,0.6985 0.33866,0.254 0.81491,0.254 z m 0.48684,-2.497666 q -0.20109,0.201083 -0.48684,0.201083 -0.28575,0 -0.48683,-0.201083 -0.20108,-0.211667 -0.20108,-0.486833 0,-0.28575 0.20108,-0.486834 0.20108,-0.211666 0.48683,-0.211666 0.28575,0 0.48684,0.211666 0.21166,0.201084 0.21166,0.486834 0,0.275166 -0.21166,0.486833 z"
         style="font-style:normal;font-variant:normal;font-weight:normal;font-stretch:normal;font-family:'Overpass Mono';-inkscape-font-specification:'Overpass Mono';stroke-width:0.26458332"
         id="path821"
         inkscape:connector-curvature="0" />
      <path
         d="m -248.26947,-35.492045 q -1.17475,0 -1.80975,-0.79375 -0.635,-0.804334 -0.635,-2.074334 0,-1.672166 1.06892,-3.037416 1.06892,-1.36525 2.78342,-1.756833 v 0.772583 q -0.96309,0.264583 -1.75684,1.04775 -0.78316,0.772583 -0.98425,1.693333 0.52917,-0.60325 1.524,-0.60325 0.94192,0 1.56634,0.687917 0.62441,0.687917 0.62441,1.61925 0,1.04775 -0.68791,1.74625 -0.68792,0.6985 -1.69334,0.6985 z m -0.0212,-0.836084 q 0.66675,0 1.09008,-0.423333 0.42333,-0.433917 0.42333,-1.100667 0,-0.6985 -0.41275,-1.132416 -0.41275,-0.4445 -1.10066,-0.4445 -0.66675,0 -1.10067,0.4445 -0.42333,0.4445 -0.42333,1.132416 0,0.656167 0.43391,1.090084 0.43392,0.433916 1.09009,0.433916 z"
         style="font-style:normal;font-variant:normal;font-weight:normal;font-stretch:normal;font-family:'Overpass Mono';-inkscape-font-specification:'Overpass Mono';stroke-width:0.26458332"
         id="path823"
         inkscape:connector-curvature="0" />
      <path
         d="m -241.32432,-36.497462 h 1.82033 v 0.878417 h -4.572 v -0.878417 h 1.8415 v -5.323416 l -1.61925,0.53975 v -0.878417 l 2.52942,-0.899583 z"
         style="font-style:normal;font-variant:normal;font-weight:normal;font-stretch:normal;font-family:'Overpass Mono';-inkscape-font-specification:'Overpass Mono';stroke-width:0.26458332"
         id="path825"
         inkscape:connector-curvature="0" />
      <path
         d="m -234.81309,-36.497462 h 1.82033 v 0.878417 h -4.57199 v -0.878417 h 1.84149 v -5.323416 l -1.61925,0.53975 v -0.878417 l 2.52942,-0.899583 z"
         style="font-style:normal;font-variant:normal;font-weight:normal;font-stretch:normal;font-family:'Overpass Mono';-inkscape-font-specification:'Overpass Mono';stroke-width:0.26458332"
         id="path827"
         inkscape:connector-curvature="0" />
    </g>
    <circle
       style="opacity:1;fill:#333333;fill-opacity:1;fill-rule:nonzero;stroke:#1a1a1a;stroke-width:0.79799998;stroke-linecap:square;stroke-linejoin:miter;stroke-miterlimit:4;stroke-dasharray:none;stroke-opacity:1;paint-order:fill markers stroke"
       id="path830"
       cx="-258.0513"
       cy="-37.548431"
       r="7.8016834"
       inkscape:export-xdpi="396.45462"
       inkscape:export-ydpi="396.45462" />
    <g
       aria-label="60611"
       style="font-style:normal;font-variant:normal;font-weight:normal;font-stretch:normal;font-size:10.58333302px;line-height:1.25;font-family:'DejaVu Sans Mono';-inkscape-font-specification:'DejaVu Sans Mono';letter-spacing:0px;word-spacing:0px;opacity:0.42000002;fill:#000000;fill-opacity:1;stroke:none;stroke-width:0.26458332;filter:url(#filter864)"
       id="g854"
       transform="matrix(0.37951544,0,0,0.37951544,-163.25584,-22.307359)"
       inkscape:export-xdpi="396.45462"
       inkscape:export-ydpi="396.45462">
      <path
         d="m -261.29193,-35.492045 q -1.17475,0 -1.80975,-0.79375 -0.635,-0.804334 -0.635,-2.074334 0,-1.672166 1.06892,-3.037416 1.06892,-1.36525 2.78342,-1.756833 v 0.772583 q -0.96309,0.264583 -1.75684,1.04775 -0.78316,0.772583 -0.98425,1.693333 0.52917,-0.60325 1.524,-0.60325 0.94192,0 1.56634,0.687917 0.62441,0.687917 0.62441,1.61925 0,1.04775 -0.68791,1.74625 -0.68792,0.6985 -1.69334,0.6985 z m -0.0212,-0.836084 q 0.66675,0 1.09008,-0.423333 0.42333,-0.433917 0.42333,-1.100667 0,-0.6985 -0.41275,-1.132416 -0.41275,-0.4445 -1.10066,-0.4445 -0.66675,0 -1.10067,0.4445 -0.42333,0.4445 -0.42333,1.132416 0,0.656167 0.43391,1.090084 0.43392,0.433916 1.09009,0.433916 z"
         style="font-style:normal;font-variant:normal;font-weight:normal;font-stretch:normal;font-family:'Overpass Mono';-inkscape-font-specification:'Overpass Mono';fill:#000000;stroke-width:0.26458332"
         id="path844"
         inkscape:connector-curvature="0" />
      <path
         d="m -254.81245,-35.492045 q -0.70908,0 -1.23825,-0.328084 -0.51858,-0.338666 -0.80433,-0.899583 -0.27517,-0.5715 -0.41275,-1.217083 -0.127,-0.645584 -0.127,-1.386417 0,-0.529166 0.0635,-1.026583 0.0741,-0.497417 0.254,-1.016 0.17992,-0.529167 0.45508,-0.910167 0.28575,-0.381 0.75142,-0.624416 0.46567,-0.254 1.05833,-0.254 0.70909,0 1.23825,0.338666 0.52917,0.328084 0.80434,0.899584 0.28575,0.5715 0.41275,1.217083 0.13758,0.645583 0.13758,1.375833 0,0.677334 -0.127,1.30175 -0.11642,0.613833 -0.39158,1.217083 -0.27517,0.592667 -0.81492,0.9525 -0.52917,0.359834 -1.25942,0.359834 z m 0,-0.836084 q 0.48684,0 0.8255,-0.264583 0.34925,-0.275167 0.508,-0.740833 0.16934,-0.465667 0.23284,-0.941917 0.0741,-0.486833 0.0741,-1.04775 0,-0.592666 -0.0847,-1.090083 -0.0741,-0.497417 -0.254,-0.941917 -0.16933,-0.455083 -0.508,-0.709083 -0.32808,-0.254 -0.79375,-0.254 -0.48683,0 -0.83608,0.275167 -0.33867,0.264583 -0.508,0.740833 -0.16933,0.465667 -0.24342,0.941917 -0.0635,0.47625 -0.0635,1.037166 0,0.592667 0.0741,1.100667 0.0847,0.497416 0.254,0.941916 0.17991,0.4445 0.508,0.6985 0.33866,0.254 0.81491,0.254 z m 0.48684,-2.497666 q -0.20109,0.201083 -0.48684,0.201083 -0.28575,0 -0.48683,-0.201083 -0.20108,-0.211667 -0.20108,-0.486833 0,-0.28575 0.20108,-0.486834 0.20108,-0.211666 0.48683,-0.211666 0.28575,0 0.48684,0.211666 0.21166,0.201084 0.21166,0.486834 0,0.275166 -0.21166,0.486833 z"
         style="font-style:normal;font-variant:normal;font-weight:normal;font-stretch:normal;font-family:'Overpass Mono';-inkscape-font-specification:'Overpass Mono';fill:#000000;stroke-width:0.26458332"
         id="path846"
         inkscape:connector-curvature="0" />
      <path
         d="m -248.26947,-35.492045 q -1.17475,0 -1.80975,-0.79375 -0.635,-0.804334 -0.635,-2.074334 0,-1.672166 1.06892,-3.037416 1.06892,-1.36525 2.78342,-1.756833 v 0.772583 q -0.96309,0.264583 -1.75684,1.04775 -0.78316,0.772583 -0.98425,1.693333 0.52917,-0.60325 1.524,-0.60325 0.94192,0 1.56634,0.687917 0.62441,0.687917 0.62441,1.61925 0,1.04775 -0.68791,1.74625 -0.68792,0.6985 -1.69334,0.6985 z m -0.0212,-0.836084 q 0.66675,0 1.09008,-0.423333 0.42333,-0.433917 0.42333,-1.100667 0,-0.6985 -0.41275,-1.132416 -0.41275,-0.4445 -1.10066,-0.4445 -0.66675,0 -1.10067,0.4445 -0.42333,0.4445 -0.42333,1.132416 0,0.656167 0.43391,1.090084 0.43392,0.433916 1.09009,0.433916 z"
         style="font-style:normal;font-variant:normal;font-weight:normal;font-stretch:normal;font-family:'Overpass Mono';-inkscape-font-specification:'Overpass Mono';fill:#000000;stroke-width:0.26458332"
         id="path848"
         inkscape:connector-curvature="0" />
      <path
         d="m -241.32432,-36.497462 h 1.82033 v 0.878417 h -4.572 v -0.878417 h 1.8415 v -5.323416 l -1.61925,0.53975 v -0.878417 l 2.52942,-0.899583 z"
         style="font-style:normal;font-variant:normal;font-weight:normal;font-stretch:normal;font-family:'Overpass Mono';-inkscape-font-specification:'Overpass Mono';fill:#000000;stroke-width:0.26458332"
         id="path850"
         inkscape:connector-curvature="0" />
      <path
         d="m -234.81309,-36.497462 h 1.82033 v 0.878417 h -4.57199 v -0.878417 h 1.84149 v -5.323416 l -1.61925,0.53975 v -0.878417 l 2.52942,-0.899583 z"
         style="font-style:normal;font-variant:normal;font-weight:normal;font-stretch:normal;font-family:'Overpass Mono';-inkscape-font-specification:'Overpass Mono';fill:#000000;stroke-width:0.26458332"
         id="path852"
         inkscape:connector-curvature="0" />
    </g>
    <g
       transform="matrix(0.37951544,0,0,0.37951544,-163.79306,-22.624666)"
       id="g842"
       style="font-style:normal;font-variant:normal;font-weight:normal;font-stretch:normal;font-size:10.58333302px;line-height:1.25;font-family:'DejaVu Sans Mono';-inkscape-font-specification:'DejaVu Sans Mono';letter-spacing:0px;word-spacing:0px;fill:#ffffff;fill-opacity:1;stroke:none;stroke-width:0.26458332"
       aria-label="60611"
       inkscape:export-xdpi="396.45462"
       inkscape:export-ydpi="396.45462">
      <path
         inkscape:connector-curvature="0"
         id="path832"
         style="font-style:normal;font-variant:normal;font-weight:normal;font-stretch:normal;font-family:'Overpass Mono';-inkscape-font-specification:'Overpass Mono';fill:#ffffff;stroke-width:0.26458332"
         d="m -261.29193,-35.492045 q -1.17475,0 -1.80975,-0.79375 -0.635,-0.804334 -0.635,-2.074334 0,-1.672166 1.06892,-3.037416 1.06892,-1.36525 2.78342,-1.756833 v 0.772583 q -0.96309,0.264583 -1.75684,1.04775 -0.78316,0.772583 -0.98425,1.693333 0.52917,-0.60325 1.524,-0.60325 0.94192,0 1.56634,0.687917 0.62441,0.687917 0.62441,1.61925 0,1.04775 -0.68791,1.74625 -0.68792,0.6985 -1.69334,0.6985 z m -0.0212,-0.836084 q 0.66675,0 1.09008,-0.423333 0.42333,-0.433917 0.42333,-1.100667 0,-0.6985 -0.41275,-1.132416 -0.41275,-0.4445 -1.10066,-0.4445 -0.66675,0 -1.10067,0.4445 -0.42333,0.4445 -0.42333,1.132416 0,0.656167 0.43391,1.090084 0.43392,0.433916 1.09009,0.433916 z" />
      <path
         inkscape:connector-curvature="0"
         id="path834"
         style="font-style:normal;font-variant:normal;font-weight:normal;font-stretch:normal;font-family:'Overpass Mono';-inkscape-font-specification:'Overpass Mono';fill:#ffffff;stroke-width:0.26458332"
         d="m -254.81245,-35.492045 q -0.70908,0 -1.23825,-0.328084 -0.51858,-0.338666 -0.80433,-0.899583 -0.27517,-0.5715 -0.41275,-1.217083 -0.127,-0.645584 -0.127,-1.386417 0,-0.529166 0.0635,-1.026583 0.0741,-0.497417 0.254,-1.016 0.17992,-0.529167 0.45508,-0.910167 0.28575,-0.381 0.75142,-0.624416 0.46567,-0.254 1.05833,-0.254 0.70909,0 1.23825,0.338666 0.52917,0.328084 0.80434,0.899584 0.28575,0.5715 0.41275,1.217083 0.13758,0.645583 0.13758,1.375833 0,0.677334 -0.127,1.30175 -0.11642,0.613833 -0.39158,1.217083 -0.27517,0.592667 -0.81492,0.9525 -0.52917,0.359834 -1.25942,0.359834 z m 0,-0.836084 q 0.48684,0 0.8255,-0.264583 0.34925,-0.275167 0.508,-0.740833 0.16934,-0.465667 0.23284,-0.941917 0.0741,-0.486833 0.0741,-1.04775 0,-0.592666 -0.0847,-1.090083 -0.0741,-0.497417 -0.254,-0.941917 -0.16933,-0.455083 -0.508,-0.709083 -0.32808,-0.254 -0.79375,-0.254 -0.48683,0 -0.83608,0.275167 -0.33867,0.264583 -0.508,0.740833 -0.16933,0.465667 -0.24342,0.941917 -0.0635,0.47625 -0.0635,1.037166 0,0.592667 0.0741,1.100667 0.0847,0.497416 0.254,0.941916 0.17991,0.4445 0.508,0.6985 0.33866,0.254 0.81491,0.254 z m 0.48684,-2.497666 q -0.20109,0.201083 -0.48684,0.201083 -0.28575,0 -0.48683,-0.201083 -0.20108,-0.211667 -0.20108,-0.486833 0,-0.28575 0.20108,-0.486834 0.20108,-0.211666 0.48683,-0.211666 0.28575,0 0.48684,0.211666 0.21166,0.201084 0.21166,0.486834 0,0.275166 -0.21166,0.486833 z" />
      <path
         inkscape:connector-curvature="0"
         id="path836"
         style="font-style:normal;font-variant:normal;font-weight:normal;font-stretch:normal;font-family:'Overpass Mono';-inkscape-font-specification:'Overpass Mono';fill:#ffffff;stroke-width:0.26458332"
         d="m -248.26947,-35.492045 q -1.17475,0 -1.80975,-0.79375 -0.635,-0.804334 -0.635,-2.074334 0,-1.672166 1.06892,-3.037416 1.06892,-1.36525 2.78342,-1.756833 v 0.772583 q -0.96309,0.264583 -1.75684,1.04775 -0.78316,0.772583 -0.98425,1.693333 0.52917,-0.60325 1.524,-0.60325 0.94192,0 1.56634,0.687917 0.62441,0.687917 0.62441,1.61925 0,1.04775 -0.68791,1.74625 -0.68792,0.6985 -1.69334,0.6985 z m -0.0212,-0.836084 q 0.66675,0 1.09008,-0.423333 0.42333,-0.433917 0.42333,-1.100667 0,-0.6985 -0.41275,-1.132416 -0.41275,-0.4445 -1.10066,-0.4445 -0.66675,0 -1.10067,0.4445 -0.42333,0.4445 -0.42333,1.132416 0,0.656167 0.43391,1.090084 0.43392,0.433916 1.09009,0.433916 z" />
      <path
         inkscape:connector-curvature="0"
         id="path838"
         style="font-style:normal;font-variant:normal;font-weight:normal;font-stretch:normal;font-family:'Overpass Mono';-inkscape-font-specification:'Overpass Mono';fill:#ffffff;stroke-width:0.26458332"
         d="m -241.32432,-36.497462 h 1.82033 v 0.878417 h -4.572 v -0.878417 h 1.8415 v -5.323416 l -1.61925,0.53975 v -0.878417 l 2.52942,-0.899583 z" />
      <path
         inkscape:connector-curvature="0"
         id="path840"
         style="font-style:normal;font-variant:normal;font-weight:normal;font-stretch:normal;font-family:'Overpass Mono';-inkscape-font-specification:'Overpass Mono';fill:#ffffff;stroke-width:0.26458332"
         d="m -234.81309,-36.497462 h 1.82033 v 0.878417 h -4.57199 v -0.878417 h 1.84149 v -5.323416 l -1.61925,0.53975 v -0.878417 l 2.52942,-0.899583 z" />
    </g>
    <g
       id="g940"
       inkscape:export-xdpi="282.29224"
       inkscape:export-ydpi="282.29224">
      <g
         aria-label="60611"
         style="font-style:normal;font-variant:normal;font-weight:normal;font-stretch:normal;font-size:10.58333302px;line-height:1.25;font-family:'DejaVu Sans Mono';-inkscape-font-specification:'DejaVu Sans Mono';letter-spacing:0px;word-spacing:0px;fill:#000000;fill-opacity:1;stroke:none;stroke-width:0.26458332"
         id="g878"
         transform="matrix(0.5,0,0,0.5,-117.57076,-4.6532828)">
        <path
           d="m -261.29193,-35.492045 q -1.17475,0 -1.80975,-0.79375 -0.635,-0.804334 -0.635,-2.074334 0,-1.672166 1.06892,-3.037416 1.06892,-1.36525 2.78342,-1.756833 v 0.772583 q -0.96309,0.264583 -1.75684,1.04775 -0.78316,0.772583 -0.98425,1.693333 0.52917,-0.60325 1.524,-0.60325 0.94192,0 1.56634,0.687917 0.62441,0.687917 0.62441,1.61925 0,1.04775 -0.68791,1.74625 -0.68792,0.6985 -1.69334,0.6985 z m -0.0212,-0.836084 q 0.66675,0 1.09008,-0.423333 0.42333,-0.433917 0.42333,-1.100667 0,-0.6985 -0.41275,-1.132416 -0.41275,-0.4445 -1.10066,-0.4445 -0.66675,0 -1.10067,0.4445 -0.42333,0.4445 -0.42333,1.132416 0,0.656167 0.43391,1.090084 0.43392,0.433916 1.09009,0.433916 z"
           style="font-style:normal;font-variant:normal;font-weight:normal;font-stretch:normal;font-family:'Overpass Mono';-inkscape-font-specification:'Overpass Mono';stroke-width:0.26458332"
           id="path868"
           inkscape:connector-curvature="0" />
        <path
           d="m -254.81245,-35.492045 q -0.70908,0 -1.23825,-0.328084 -0.51858,-0.338666 -0.80433,-0.899583 -0.27517,-0.5715 -0.41275,-1.217083 -0.127,-0.645584 -0.127,-1.386417 0,-0.529166 0.0635,-1.026583 0.0741,-0.497417 0.254,-1.016 0.17992,-0.529167 0.45508,-0.910167 0.28575,-0.381 0.75142,-0.624416 0.46567,-0.254 1.05833,-0.254 0.70909,0 1.23825,0.338666 0.52917,0.328084 0.80434,0.899584 0.28575,0.5715 0.41275,1.217083 0.13758,0.645583 0.13758,1.375833 0,0.677334 -0.127,1.30175 -0.11642,0.613833 -0.39158,1.217083 -0.27517,0.592667 -0.81492,0.9525 -0.52917,0.359834 -1.25942,0.359834 z m 0,-0.836084 q 0.48684,0 0.8255,-0.264583 0.34925,-0.275167 0.508,-0.740833 0.16934,-0.465667 0.23284,-0.941917 0.0741,-0.486833 0.0741,-1.04775 0,-0.592666 -0.0847,-1.090083 -0.0741,-0.497417 -0.254,-0.941917 -0.16933,-0.455083 -0.508,-0.709083 -0.32808,-0.254 -0.79375,-0.254 -0.48683,0 -0.83608,0.275167 -0.33867,0.264583 -0.508,0.740833 -0.16933,0.465667 -0.24342,0.941917 -0.0635,0.47625 -0.0635,1.037166 0,0.592667 0.0741,1.100667 0.0847,0.497416 0.254,0.941916 0.17991,0.4445 0.508,0.6985 0.33866,0.254 0.81491,0.254 z m 0.48684,-2.497666 q -0.20109,0.201083 -0.48684,0.201083 -0.28575,0 -0.48683,-0.201083 -0.20108,-0.211667 -0.20108,-0.486833 0,-0.28575 0.20108,-0.486834 0.20108,-0.211666 0.48683,-0.211666 0.28575,0 0.48684,0.211666 0.21166,0.201084 0.21166,0.486834 0,0.275166 -0.21166,0.486833 z"
           style="font-style:normal;font-variant:normal;font-weight:normal;font-stretch:normal;font-family:'Overpass Mono';-inkscape-font-specification:'Overpass Mono';stroke-width:0.26458332"
           id="path870"
           inkscape:connector-curvature="0" />
        <path
           d="m -248.26947,-35.492045 q -1.17475,0 -1.80975,-0.79375 -0.635,-0.804334 -0.635,-2.074334 0,-1.672166 1.06892,-3.037416 1.06892,-1.36525 2.78342,-1.756833 v 0.772583 q -0.96309,0.264583 -1.75684,1.04775 -0.78316,0.772583 -0.98425,1.693333 0.52917,-0.60325 1.524,-0.60325 0.94192,0 1.56634,0.687917 0.62441,0.687917 0.62441,1.61925 0,1.04775 -0.68791,1.74625 -0.68792,0.6985 -1.69334,0.6985 z m -0.0212,-0.836084 q 0.66675,0 1.09008,-0.423333 0.42333,-0.433917 0.42333,-1.100667 0,-0.6985 -0.41275,-1.132416 -0.41275,-0.4445 -1.10066,-0.4445 -0.66675,0 -1.10067,0.4445 -0.42333,0.4445 -0.42333,1.132416 0,0.656167 0.43391,1.090084 0.43392,0.433916 1.09009,0.433916 z"
           style="font-style:normal;font-variant:normal;font-weight:normal;font-stretch:normal;font-family:'Overpass Mono';-inkscape-font-specification:'Overpass Mono';stroke-width:0.26458332"
           id="path872"
           inkscape:connector-curvature="0" />
        <path
           d="m -241.32432,-36.497462 h 1.82033 v 0.878417 h -4.572 v -0.878417 h 1.8415 v -5.323416 l -1.61925,0.53975 v -0.878417 l 2.52942,-0.899583 z"
           style="font-style:normal;font-variant:normal;font-weight:normal;font-stretch:normal;font-family:'Overpass Mono';-inkscape-font-specification:'Overpass Mono';stroke-width:0.26458332"
           id="path874"
           inkscape:connector-curvature="0" />
        <path
           d="m -234.81309,-36.497462 h 1.82033 v 0.878417 h -4.57199 v -0.878417 h 1.84149 v -5.323416 l -1.61925,0.53975 v -0.878417 l 2.52942,-0.899583 z"
           style="font-style:normal;font-variant:normal;font-weight:normal;font-stretch:normal;font-family:'Overpass Mono';-inkscape-font-specification:'Overpass Mono';stroke-width:0.26458332"
           id="path876"
           inkscape:connector-curvature="0" />
      </g>
      <g
         transform="matrix(0,-0.5,0.5,0,-231.69308,-138.89569)"
         id="g890"
         style="font-style:normal;font-variant:normal;font-weight:normal;font-stretch:normal;font-size:10.58333302px;line-height:1.25;font-family:'DejaVu Sans Mono';-inkscape-font-specification:'DejaVu Sans Mono';letter-spacing:0px;word-spacing:0px;fill:#000000;fill-opacity:1;stroke:none;stroke-width:0.26458332"
         aria-label="60611">
        <path
           inkscape:connector-curvature="0"
           id="path880"
           style="font-style:normal;font-variant:normal;font-weight:normal;font-stretch:normal;font-family:'Overpass Mono';-inkscape-font-specification:'Overpass Mono';stroke-width:0.26458332"
           d="m -261.29193,-35.492045 q -1.17475,0 -1.80975,-0.79375 -0.635,-0.804334 -0.635,-2.074334 0,-1.672166 1.06892,-3.037416 1.06892,-1.36525 2.78342,-1.756833 v 0.772583 q -0.96309,0.264583 -1.75684,1.04775 -0.78316,0.772583 -0.98425,1.693333 0.52917,-0.60325 1.524,-0.60325 0.94192,0 1.56634,0.687917 0.62441,0.687917 0.62441,1.61925 0,1.04775 -0.68791,1.74625 -0.68792,0.6985 -1.69334,0.6985 z m -0.0212,-0.836084 q 0.66675,0 1.09008,-0.423333 0.42333,-0.433917 0.42333,-1.100667 0,-0.6985 -0.41275,-1.132416 -0.41275,-0.4445 -1.10066,-0.4445 -0.66675,0 -1.10067,0.4445 -0.42333,0.4445 -0.42333,1.132416 0,0.656167 0.43391,1.090084 0.43392,0.433916 1.09009,0.433916 z" />
        <path
           inkscape:connector-curvature="0"
           id="path882"
           style="font-style:normal;font-variant:normal;font-weight:normal;font-stretch:normal;font-family:'Overpass Mono';-inkscape-font-specification:'Overpass Mono';stroke-width:0.26458332"
           d="m -254.81245,-35.492045 q -0.70908,0 -1.23825,-0.328084 -0.51858,-0.338666 -0.80433,-0.899583 -0.27517,-0.5715 -0.41275,-1.217083 -0.127,-0.645584 -0.127,-1.386417 0,-0.529166 0.0635,-1.026583 0.0741,-0.497417 0.254,-1.016 0.17992,-0.529167 0.45508,-0.910167 0.28575,-0.381 0.75142,-0.624416 0.46567,-0.254 1.05833,-0.254 0.70909,0 1.23825,0.338666 0.52917,0.328084 0.80434,0.899584 0.28575,0.5715 0.41275,1.217083 0.13758,0.645583 0.13758,1.375833 0,0.677334 -0.127,1.30175 -0.11642,0.613833 -0.39158,1.217083 -0.27517,0.592667 -0.81492,0.9525 -0.52917,0.359834 -1.25942,0.359834 z m 0,-0.836084 q 0.48684,0 0.8255,-0.264583 0.34925,-0.275167 0.508,-0.740833 0.16934,-0.465667 0.23284,-0.941917 0.0741,-0.486833 0.0741,-1.04775 0,-0.592666 -0.0847,-1.090083 -0.0741,-0.497417 -0.254,-0.941917 -0.16933,-0.455083 -0.508,-0.709083 -0.32808,-0.254 -0.79375,-0.254 -0.48683,0 -0.83608,0.275167 -0.33867,0.264583 -0.508,0.740833 -0.16933,0.465667 -0.24342,0.941917 -0.0635,0.47625 -0.0635,1.037166 0,0.592667 0.0741,1.100667 0.0847,0.497416 0.254,0.941916 0.17991,0.4445 0.508,0.6985 0.33866,0.254 0.81491,0.254 z m 0.48684,-2.497666 q -0.20109,0.201083 -0.48684,0.201083 -0.28575,0 -0.48683,-0.201083 -0.20108,-0.211667 -0.20108,-0.486833 0,-0.28575 0.20108,-0.486834 0.20108,-0.211666 0.48683,-0.211666 0.28575,0 0.48684,0.211666 0.21166,0.201084 0.21166,0.486834 0,0.275166 -0.21166,0.486833 z" />
        <path
           inkscape:connector-curvature="0"
           id="path884"
           style="font-style:normal;font-variant:normal;font-weight:normal;font-stretch:normal;font-family:'Overpass Mono';-inkscape-font-specification:'Overpass Mono';stroke-width:0.26458332"
           d="m -248.26947,-35.492045 q -1.17475,0 -1.80975,-0.79375 -0.635,-0.804334 -0.635,-2.074334 0,-1.672166 1.06892,-3.037416 1.06892,-1.36525 2.78342,-1.756833 v 0.772583 q -0.96309,0.264583 -1.75684,1.04775 -0.78316,0.772583 -0.98425,1.693333 0.52917,-0.60325 1.524,-0.60325 0.94192,0 1.56634,0.687917 0.62441,0.687917 0.62441,1.61925 0,1.04775 -0.68791,1.74625 -0.68792,0.6985 -1.69334,0.6985 z m -0.0212,-0.836084 q 0.66675,0 1.09008,-0.423333 0.42333,-0.433917 0.42333,-1.100667 0,-0.6985 -0.41275,-1.132416 -0.41275,-0.4445 -1.10066,-0.4445 -0.66675,0 -1.10067,0.4445 -0.42333,0.4445 -0.42333,1.132416 0,0.656167 0.43391,1.090084 0.43392,0.433916 1.09009,0.433916 z" />
        <path
           inkscape:connector-curvature="0"
           id="path886"
           style="font-style:normal;font-variant:normal;font-weight:normal;font-stretch:normal;font-family:'Overpass Mono';-inkscape-font-specification:'Overpass Mono';stroke-width:0.26458332"
           d="m -241.32432,-36.497462 h 1.82033 v 0.878417 h -4.572 v -0.878417 h 1.8415 v -5.323416 l -1.61925,0.53975 v -0.878417 l 2.52942,-0.899583 z" />
        <path
           inkscape:connector-curvature="0"
           id="path888"
           style="font-style:normal;font-variant:normal;font-weight:normal;font-stretch:normal;font-family:'Overpass Mono';-inkscape-font-specification:'Overpass Mono';stroke-width:0.26458332"
           d="m -234.81309,-36.497462 h 1.82033 v 0.878417 h -4.57199 v -0.878417 h 1.84149 v -5.323416 l -1.61925,0.53975 v -0.878417 l 2.52942,-0.899583 z" />
      </g>
      <g
         aria-label="60611"
         style="font-style:normal;font-variant:normal;font-weight:normal;font-stretch:normal;font-size:10.58333302px;line-height:1.25;font-family:'DejaVu Sans Mono';-inkscape-font-specification:'DejaVu Sans Mono';letter-spacing:0px;word-spacing:0px;fill:#000000;fill-opacity:1;stroke:none;stroke-width:0.26458332"
         id="g902"
         transform="matrix(-0.5,0,0,-0.5,-365.93548,-24.773372)">
        <path
           d="m -261.29193,-35.492045 q -1.17475,0 -1.80975,-0.79375 -0.635,-0.804334 -0.635,-2.074334 0,-1.672166 1.06892,-3.037416 1.06892,-1.36525 2.78342,-1.756833 v 0.772583 q -0.96309,0.264583 -1.75684,1.04775 -0.78316,0.772583 -0.98425,1.693333 0.52917,-0.60325 1.524,-0.60325 0.94192,0 1.56634,0.687917 0.62441,0.687917 0.62441,1.61925 0,1.04775 -0.68791,1.74625 -0.68792,0.6985 -1.69334,0.6985 z m -0.0212,-0.836084 q 0.66675,0 1.09008,-0.423333 0.42333,-0.433917 0.42333,-1.100667 0,-0.6985 -0.41275,-1.132416 -0.41275,-0.4445 -1.10066,-0.4445 -0.66675,0 -1.10067,0.4445 -0.42333,0.4445 -0.42333,1.132416 0,0.656167 0.43391,1.090084 0.43392,0.433916 1.09009,0.433916 z"
           style="font-style:normal;font-variant:normal;font-weight:normal;font-stretch:normal;font-family:'Overpass Mono';-inkscape-font-specification:'Overpass Mono';stroke-width:0.26458332"
           id="path892"
           inkscape:connector-curvature="0" />
        <path
           d="m -254.81245,-35.492045 q -0.70908,0 -1.23825,-0.328084 -0.51858,-0.338666 -0.80433,-0.899583 -0.27517,-0.5715 -0.41275,-1.217083 -0.127,-0.645584 -0.127,-1.386417 0,-0.529166 0.0635,-1.026583 0.0741,-0.497417 0.254,-1.016 0.17992,-0.529167 0.45508,-0.910167 0.28575,-0.381 0.75142,-0.624416 0.46567,-0.254 1.05833,-0.254 0.70909,0 1.23825,0.338666 0.52917,0.328084 0.80434,0.899584 0.28575,0.5715 0.41275,1.217083 0.13758,0.645583 0.13758,1.375833 0,0.677334 -0.127,1.30175 -0.11642,0.613833 -0.39158,1.217083 -0.27517,0.592667 -0.81492,0.9525 -0.52917,0.359834 -1.25942,0.359834 z m 0,-0.836084 q 0.48684,0 0.8255,-0.264583 0.34925,-0.275167 0.508,-0.740833 0.16934,-0.465667 0.23284,-0.941917 0.0741,-0.486833 0.0741,-1.04775 0,-0.592666 -0.0847,-1.090083 -0.0741,-0.497417 -0.254,-0.941917 -0.16933,-0.455083 -0.508,-0.709083 -0.32808,-0.254 -0.79375,-0.254 -0.48683,0 -0.83608,0.275167 -0.33867,0.264583 -0.508,0.740833 -0.16933,0.465667 -0.24342,0.941917 -0.0635,0.47625 -0.0635,1.037166 0,0.592667 0.0741,1.100667 0.0847,0.497416 0.254,0.941916 0.17991,0.4445 0.508,0.6985 0.33866,0.254 0.81491,0.254 z m 0.48684,-2.497666 q -0.20109,0.201083 -0.48684,0.201083 -0.28575,0 -0.48683,-0.201083 -0.20108,-0.211667 -0.20108,-0.486833 0,-0.28575 0.20108,-0.486834 0.20108,-0.211666 0.48683,-0.211666 0.28575,0 0.48684,0.211666 0.21166,0.201084 0.21166,0.486834 0,0.275166 -0.21166,0.486833 z"
           style="font-style:normal;font-variant:normal;font-weight:normal;font-stretch:normal;font-family:'Overpass Mono';-inkscape-font-specification:'Overpass Mono';stroke-width:0.26458332"
           id="path894"
           inkscape:connector-curvature="0" />
        <path
           d="m -248.26947,-35.492045 q -1.17475,0 -1.80975,-0.79375 -0.635,-0.804334 -0.635,-2.074334 0,-1.672166 1.06892,-3.037416 1.06892,-1.36525 2.78342,-1.756833 v 0.772583 q -0.96309,0.264583 -1.75684,1.04775 -0.78316,0.772583 -0.98425,1.693333 0.52917,-0.60325 1.524,-0.60325 0.94192,0 1.56634,0.687917 0.62441,0.687917 0.62441,1.61925 0,1.04775 -0.68791,1.74625 -0.68792,0.6985 -1.69334,0.6985 z m -0.0212,-0.836084 q 0.66675,0 1.09008,-0.423333 0.42333,-0.433917 0.42333,-1.100667 0,-0.6985 -0.41275,-1.132416 -0.41275,-0.4445 -1.10066,-0.4445 -0.66675,0 -1.10067,0.4445 -0.42333,0.4445 -0.42333,1.132416 0,0.656167 0.43391,1.090084 0.43392,0.433916 1.09009,0.433916 z"
           style="font-style:normal;font-variant:normal;font-weight:normal;font-stretch:normal;font-family:'Overpass Mono';-inkscape-font-specification:'Overpass Mono';stroke-width:0.26458332"
           id="path896"
           inkscape:connector-curvature="0" />
        <path
           d="m -241.32432,-36.497462 h 1.82033 v 0.878417 h -4.572 v -0.878417 h 1.8415 v -5.323416 l -1.61925,0.53975 v -0.878417 l 2.52942,-0.899583 z"
           style="font-style:normal;font-variant:normal;font-weight:normal;font-stretch:normal;font-family:'Overpass Mono';-inkscape-font-specification:'Overpass Mono';stroke-width:0.26458332"
           id="path898"
           inkscape:connector-curvature="0" />
        <path
           d="m -234.81309,-36.497462 h 1.82033 v 0.878417 h -4.57199 v -0.878417 h 1.84149 v -5.323416 l -1.61925,0.53975 v -0.878417 l 2.52942,-0.899583 z"
           style="font-style:normal;font-variant:normal;font-weight:normal;font-stretch:normal;font-family:'Overpass Mono';-inkscape-font-specification:'Overpass Mono';stroke-width:0.26458332"
           id="path900"
           inkscape:connector-curvature="0" />
      </g>
      <g
         transform="matrix(0,0.5,-0.5,0,-251.81316,109.46903)"
         id="g914"
         style="font-style:normal;font-variant:normal;font-weight:normal;font-stretch:normal;font-size:10.58333302px;line-height:1.25;font-family:'DejaVu Sans Mono';-inkscape-font-specification:'DejaVu Sans Mono';letter-spacing:0px;word-spacing:0px;fill:#000000;fill-opacity:1;stroke:none;stroke-width:0.26458332"
         aria-label="60611">
        <path
           inkscape:connector-curvature="0"
           id="path904"
           style="font-style:normal;font-variant:normal;font-weight:normal;font-stretch:normal;font-family:'Overpass Mono';-inkscape-font-specification:'Overpass Mono';stroke-width:0.26458332"
           d="m -261.29193,-35.492045 q -1.17475,0 -1.80975,-0.79375 -0.635,-0.804334 -0.635,-2.074334 0,-1.672166 1.06892,-3.037416 1.06892,-1.36525 2.78342,-1.756833 v 0.772583 q -0.96309,0.264583 -1.75684,1.04775 -0.78316,0.772583 -0.98425,1.693333 0.52917,-0.60325 1.524,-0.60325 0.94192,0 1.56634,0.687917 0.62441,0.687917 0.62441,1.61925 0,1.04775 -0.68791,1.74625 -0.68792,0.6985 -1.69334,0.6985 z m -0.0212,-0.836084 q 0.66675,0 1.09008,-0.423333 0.42333,-0.433917 0.42333,-1.100667 0,-0.6985 -0.41275,-1.132416 -0.41275,-0.4445 -1.10066,-0.4445 -0.66675,0 -1.10067,0.4445 -0.42333,0.4445 -0.42333,1.132416 0,0.656167 0.43391,1.090084 0.43392,0.433916 1.09009,0.433916 z" />
        <path
           inkscape:connector-curvature="0"
           id="path906"
           style="font-style:normal;font-variant:normal;font-weight:normal;font-stretch:normal;font-family:'Overpass Mono';-inkscape-font-specification:'Overpass Mono';stroke-width:0.26458332"
           d="m -254.81245,-35.492045 q -0.70908,0 -1.23825,-0.328084 -0.51858,-0.338666 -0.80433,-0.899583 -0.27517,-0.5715 -0.41275,-1.217083 -0.127,-0.645584 -0.127,-1.386417 0,-0.529166 0.0635,-1.026583 0.0741,-0.497417 0.254,-1.016 0.17992,-0.529167 0.45508,-0.910167 0.28575,-0.381 0.75142,-0.624416 0.46567,-0.254 1.05833,-0.254 0.70909,0 1.23825,0.338666 0.52917,0.328084 0.80434,0.899584 0.28575,0.5715 0.41275,1.217083 0.13758,0.645583 0.13758,1.375833 0,0.677334 -0.127,1.30175 -0.11642,0.613833 -0.39158,1.217083 -0.27517,0.592667 -0.81492,0.9525 -0.52917,0.359834 -1.25942,0.359834 z m 0,-0.836084 q 0.48684,0 0.8255,-0.264583 0.34925,-0.275167 0.508,-0.740833 0.16934,-0.465667 0.23284,-0.941917 0.0741,-0.486833 0.0741,-1.04775 0,-0.592666 -0.0847,-1.090083 -0.0741,-0.497417 -0.254,-0.941917 -0.16933,-0.455083 -0.508,-0.709083 -0.32808,-0.254 -0.79375,-0.254 -0.48683,0 -0.83608,0.275167 -0.33867,0.264583 -0.508,0.740833 -0.16933,0.465667 -0.24342,0.941917 -0.0635,0.47625 -0.0635,1.037166 0,0.592667 0.0741,1.100667 0.0847,0.497416 0.254,0.941916 0.17991,0.4445 0.508,0.6985 0.33866,0.254 0.81491,0.254 z m 0.48684,-2.497666 q -0.20109,0.201083 -0.48684,0.201083 -0.28575,0 -0.48683,-0.201083 -0.20108,-0.211667 -0.20108,-0.486833 0,-0.28575 0.20108,-0.486834 0.20108,-0.211666 0.48683,-0.211666 0.28575,0 0.48684,0.211666 0.21166,0.201084 0.21166,0.486834 0,0.275166 -0.21166,0.486833 z" />
        <path
           inkscape:connector-curvature="0"
           id="path908"
           style="font-style:normal;font-variant:normal;font-weight:normal;font-stretch:normal;font-family:'Overpass Mono';-inkscape-font-specification:'Overpass Mono';stroke-width:0.26458332"
           d="m -248.26947,-35.492045 q -1.17475,0 -1.80975,-0.79375 -0.635,-0.804334 -0.635,-2.074334 0,-1.672166 1.06892,-3.037416 1.06892,-1.36525 2.78342,-1.756833 v 0.772583 q -0.96309,0.264583 -1.75684,1.04775 -0.78316,0.772583 -0.98425,1.693333 0.52917,-0.60325 1.524,-0.60325 0.94192,0 1.56634,0.687917 0.62441,0.687917 0.62441,1.61925 0,1.04775 -0.68791,1.74625 -0.68792,0.6985 -1.69334,0.6985 z m -0.0212,-0.836084 q 0.66675,0 1.09008,-0.423333 0.42333,-0.433917 0.42333,-1.100667 0,-0.6985 -0.41275,-1.132416 -0.41275,-0.4445 -1.10066,-0.4445 -0.66675,0 -1.10067,0.4445 -0.42333,0.4445 -0.42333,1.132416 0,0.656167 0.43391,1.090084 0.43392,0.433916 1.09009,0.433916 z" />
        <path
           inkscape:connector-curvature="0"
           id="path910"
           style="font-style:normal;font-variant:normal;font-weight:normal;font-stretch:normal;font-family:'Overpass Mono';-inkscape-font-specification:'Overpass Mono';stroke-width:0.26458332"
           d="m -241.32432,-36.497462 h 1.82033 v 0.878417 h -4.572 v -0.878417 h 1.8415 v -5.323416 l -1.61925,0.53975 v -0.878417 l 2.52942,-0.899583 z" />
        <path
           inkscape:connector-curvature="0"
           id="path912"
           style="font-style:normal;font-variant:normal;font-weight:normal;font-stretch:normal;font-family:'Overpass Mono';-inkscape-font-specification:'Overpass Mono';stroke-width:0.26458332"
           d="m -234.81309,-36.497462 h 1.82033 v 0.878417 h -4.57199 v -0.878417 h 1.84149 v -5.323416 l -1.61925,0.53975 v -0.878417 l 2.52942,-0.899583 z" />
      </g>
    </g>
  </g>
</svg>
